<?xml version="1.0" encoding="utf-8"?>
<!-- Generator: Adobe Illustrator 24.0.1, SVG Export Plug-In . SVG Version: 6.00 Build 0)  -->
<svg version="1.1" id="Layer_1" xmlns="http://www.w3.org/2000/svg" xmlns:xlink="http://www.w3.org/1999/xlink" x="0px" y="0px"
	 viewBox="0 0 2000 2000" style="enable-background:new 0 0 2000 2000;" xml:space="preserve">
<style type="text/css">
	.st0{fill:#FEFEFE;}
	.st1{fill:#69398F;}
	.st2{fill:#767676;}
	.st3{fill:#777776;}
</style>
<g>
	<g>
		<path class="st0" d="M1255.67,1196.42c-122.56,0-245.11,0-367.67,0c0-98.14,0-196.28,0-294.42c122.56,0,245.11,0,367.67,0
			C1255.67,1000.14,1255.67,1098.28,1255.67,1196.42z M1000.58,964.58c5.49,1.84,9.72,3.02,13.73,4.73c1.74,0.74,4.27,2.55,4.3,3.93
			c0.24,9.43-0.1,18.87-0.22,28.31c-0.05,4.09-0.17,8.2,0.06,12.28c0.05,0.82,1.59,2.29,2.27,2.2c1.2-0.17,3.07-1.17,3.23-2.07
			c0.62-3.55,1-7.21,0.88-10.81c-0.35-10.06-0.99-20.11-1.52-30.28c6.78-0.32,9.61,1.65,9.04,7.65c-0.41,4.31-0.08,8.7-0.08,12.97
			c26.89,0,52.7,0,79.24,0c-0.5-6.59-0.95-12.49-1.44-18.91c9.78-2.84,20.18-5.86,32.05-9.31c-2.47-1.08-3.49-1.66-4.58-1.98
			c-20.35-5.89-40.67-11.89-61.1-17.48c-3.16-0.86-7-0.51-10.23,0.37C1045.04,951.92,1023.97,957.97,1000.58,964.58z
			 M1067.71,1106.53c0-16.32,0.12-33.62-0.1-50.92c-0.05-3.56-1.8-7.08-1.97-10.66c-0.13-2.64,0.25-6.84,1.82-7.68
			c2.33-1.24,6.55-1.08,8.78,0.34c1.52,0.96,1.43,5.11,1.31,7.8c-0.12,2.85-1.59,5.66-1.65,8.5c-0.25,12.94-0.21,25.88-0.28,38.82
			c-0.01,2.49-0.04,4.98-0.05,7.47c-0.01,2.47,0,4.94,0,7.41c6.91-18.39,17.62-33.15,33.16-44.58c1.18-0.87,0.97-4.44,0.49-6.55
			c-1-4.5-3.16-8.79-3.85-13.31c-1.5-9.96-2.37-20.02-3.5-30.02c-20.41,0-40.32,0-59.54,0c-2.49,13.28-4.32,26.2-7.48,38.8
			c-1.85,7.37-1.81,12.02,5.81,16.28c4.89,2.74,8.39,8.45,11.7,13.37C1057.93,1089.86,1062.85,1098.56,1067.71,1106.53z
			 M1109.92,998.47c-2.35-0.25-4.3-0.64-6.24-0.64c-21.48-0.05-42.95,0.02-64.43-0.09c-3.98-0.02-6.66,0.37-6.78,5.42
			c-0.14,5.68,3.12,5.68,7.23,5.66c20.98-0.11,41.95-0.06,62.93-0.14c2.4-0.01,4.79-0.44,7.29-0.68
			C1109.92,1004.55,1109.92,1001.68,1109.92,998.47z"/>
		<path class="st1" d="M1000.58,964.58c23.4-6.61,44.46-12.67,65.61-18.42c3.23-0.88,7.08-1.23,10.23-0.37
			c20.43,5.59,40.76,11.59,61.1,17.48c1.1,0.32,2.12,0.9,4.58,1.98c-11.87,3.45-22.27,6.47-32.05,9.31
			c0.49,6.43,0.94,12.32,1.44,18.91c-26.55,0-52.35,0-79.24,0c0-4.27-0.33-8.65,0.08-12.97c0.57-6-2.26-7.96-9.04-7.65
			c0.53,10.17,1.17,20.22,1.52,30.28c0.12,3.6-0.26,7.26-0.88,10.81c-0.16,0.9-2.03,1.9-3.23,2.07c-0.67,0.1-2.22-1.37-2.27-2.2
			c-0.22-4.08-0.11-8.18-0.06-12.28c0.12-9.44,0.46-18.88,0.22-28.31c-0.04-1.38-2.56-3.18-4.3-3.93
			C1010.3,967.6,1006.06,966.43,1000.58,964.58z"/>
		<path class="st2" d="M1067.71,1106.53c-4.85-7.96-9.78-16.67-15.34-24.94c-3.31-4.92-6.81-10.63-11.7-13.37
			c-7.62-4.26-7.65-8.92-5.81-16.28c3.16-12.59,5-25.52,7.48-38.8c19.22,0,39.13,0,59.54,0c1.13,10.01,2,20.06,3.5,30.02
			c0.68,4.53,2.84,8.81,3.85,13.31c0.47,2.11,0.69,5.68-0.49,6.55c-15.54,11.43-26.25,26.19-33.16,44.58c0-2.47-0.01-4.94,0-7.41
			c0.01-2.49,0.04-4.98,0.05-7.47c0.07-12.94,0.03-25.89,0.28-38.82c0.06-2.84,1.53-5.65,1.65-8.5c0.11-2.69,0.21-6.83-1.31-7.8
			c-2.23-1.42-6.45-1.58-8.78-0.34c-1.58,0.84-1.95,5.03-1.82,7.68c0.17,3.58,1.92,7.1,1.97,10.66
			C1067.83,1072.9,1067.71,1090.2,1067.71,1106.53z"/>
		<path class="st3" d="M1109.92,998.47c0,3.21,0,6.08,0,9.54c-2.5,0.24-4.89,0.67-7.29,0.68c-20.98,0.07-41.95,0.03-62.93,0.14
			c-4.11,0.02-7.37,0.01-7.23-5.66c0.12-5.05,2.8-5.44,6.78-5.42c21.48,0.11,42.95,0.04,64.43,0.09
			C1105.62,997.83,1107.57,998.22,1109.92,998.47z"/>
	</g>
</g>
</svg>
